<svg height="2238" width="720" xmlns="http://www.w3.org/2000/svg">
<rect height="2238" fill="#555" width="720"></rect>
<text fill="#7f7" font-family="Courier New" font-size="12" xml:space="preserve">
<tspan x="10" y="26"></tspan>
<tspan x="10" y="42">&gt; npmdoc-prompt@0.0.1 test /home/travis/build/npmdoc/node-npmdoc-prompt</tspan>
<tspan x="10" y="58">&gt; (set -e; export PORT=$(utility2 shServerPortRandom); utility2 test test.js)</tspan>
<tspan x="10" y="74"></tspan>
<tspan x="10" y="90"></tspan>
<tspan x="10" y="106">[MODE_BUILD=npmTest] - 2017-03-25T12:20:08Z - npm-testing /home/travis/build/npmdoc/node-npmdoc-\</tspan>
<tspan x="10" y="122">prompt</tspan>
<tspan x="10" y="138"></tspan>
<tspan x="10" y="154"></tspan>
<tspan x="10" y="170">covering $ /home/travis/.nvm/versions/node/v6.10.1/bin/node /home/travis/build/npmdoc/node-npmdo\</tspan>
<tspan x="10" y="186">c-prompt/test.js</tspan>
<tspan x="10" y="202">merging file:///home/travis/build/npmdoc/node-npmdoc-prompt/tmp/build/test-report.json to test-r\</tspan>
<tspan x="10" y="218">eport</tspan>
<tspan x="10" y="234">&gt; server listening on http-port 44162</tspan>
<tspan x="10" y="250">created apidoc file:///home/travis/build/npmdoc/node-npmdoc-prompt/tmp/build/apidoc.html</tspan>
<tspan x="10" y="266"></tspan>
<tspan x="10" y="282"></tspan>
<tspan x="10" y="298">browserTest - created electron entry-page /home/travis/build/npmdoc/node-npmdoc-prompt/tmp/elect\</tspan>
<tspan x="10" y="314">ron.15b0568d9640.dcad3b37ab8b.html</tspan>
<tspan x="10" y="330"></tspan>
<tspan x="10" y="346">[node test-case 1 of 6 passed] - testCase_buildLib_default</tspan>
<tspan x="10" y="362">[node test-case 2 of 6 passed] - testCase_buildReadme_default</tspan>
<tspan x="10" y="378">[node test-case 3 of 6 passed] - testCase_buildTest_default</tspan>
<tspan x="10" y="394"></tspan>
<tspan x="10" y="410">browserTest - created electron entry-page /home/travis/build/npmdoc/node-npmdoc-prompt/tmp/elect\</tspan>
<tspan x="10" y="426">ron.15b0568d9d00.aa0ffcb67529d.html</tspan>
<tspan x="10" y="442"></tspan>
<tspan x="10" y="458">Xlib:  extension "RANDR" missing on display ":99.0".</tspan>
<tspan x="10" y="474">Xlib:  extension "RANDR" missing on display ":99.0".</tspan>
<tspan x="10" y="490">&gt; server listening on http-port 43122</tspan>
<tspan x="10" y="506"></tspan>
<tspan x="10" y="522">/home/travis/build/npmdoc/node-npmdoc-prompt/node_modules/utility2/lib.utility2.sh.html.js</tspan>
<tspan x="10" y="538"> #1 Line too long.</tspan>
<tspan x="10" y="554">    process.stdout.write('export npm_package_' + key.replace((/\W/g), '_') + '=' + JSON.stringif\</tspan>
<tspan x="10" y="570">y(value) + ';'); // Line 1445, Pos 116</tspan>
<tspan x="10" y="586"></tspan>
<tspan x="10" y="602">merging file:///home/travis/build/npmdoc/node-npmdoc-prompt/tmp/build/test-report.json to test-r\</tspan>
<tspan x="10" y="618">eport</tspan>
<tspan x="10" y="634">Xlib:  extension "RANDR" missing on display ":99.0".</tspan>
<tspan x="10" y="650">[4831:0325/122010:WARNING:audio_manager.cc(314)] Multiple instances of AudioManager detected</tspan>
<tspan x="10" y="666">[4831:0325/122010:WARNING:audio_manager.cc(275)] Multiple instances of AudioManager detected</tspan>
<tspan x="10" y="682">[4866:0325/122010:ERROR:sandbox_linux.cc(343)] InitializeSandbox() called with multiple threads \</tspan>
<tspan x="10" y="698">in process gpu-process. </tspan>
<tspan x="10" y="714"></tspan>
<tspan x="10" y="730">/home/travis/build/npmdoc/node-npmdoc-prompt/node_modules/utility2/lib.utility2.sh.html.js</tspan>
<tspan x="10" y="746"> #1 Line too long.</tspan>
<tspan x="10" y="762">    process.stdout.write('export npm_package_' + key.replace((/\W/g), '_') + '=' + JSON.stringif\</tspan>
<tspan x="10" y="778">y(value) + ';'); // Line 1445, Pos 116</tspan>
<tspan x="10" y="794"></tspan>
<tspan x="10" y="810">merging file:///home/travis/build/npmdoc/node-npmdoc-prompt/tmp/build/test-report.json to test-r\</tspan>
<tspan x="10" y="826">eport</tspan>
<tspan x="10" y="842">Xlib:  extension "RANDR" missing on display ":99.0".</tspan>
<tspan x="10" y="858">[4843:0325/122011:WARNING:audio_manager.cc(314)] Multiple instances of AudioManager detected</tspan>
<tspan x="10" y="874">[4843:0325/122011:WARNING:audio_manager.cc(275)] Multiple instances of AudioManager detected</tspan>
<tspan x="10" y="890">[4897:0325/122011:ERROR:sandbox_linux.cc(343)] InitializeSandbox() called with multiple threads \</tspan>
<tspan x="10" y="906">in process gpu-process. </tspan>
<tspan x="10" y="922">[4843:0325/122011:ERROR:browser_gpu_channel_host_factory.cc(131)] Failed to create channel.</tspan>
<tspan x="10" y="938"></tspan>
<tspan x="10" y="954">browserTest - opened url file:///home/travis/build/npmdoc/node-npmdoc-prompt/tmp/build/apidoc.ht\</tspan>
<tspan x="10" y="970">ml</tspan>
<tspan x="10" y="986"></tspan>
<tspan x="10" y="1002"></tspan>
<tspan x="10" y="1018">browserTest - opened url http://127.0.0.1:44162?modeTest=1</tspan>
<tspan x="10" y="1034"></tspan>
<tspan x="10" y="1050">[4843:0325/122013:INFO:CONSOLE(203)] "----------|-----------|-----------|-----------|-----------\</tspan>
<tspan x="10" y="1066">|</tspan>
<tspan x="10" y="1082">File      |   % Stmts |% Branches |   % Funcs |   % Lines |</tspan>
<tspan x="10" y="1098">----------|-----------|-----------|-----------|-----------|</tspan>
<tspan x="10" y="1114">----------|-----------|-----------|-----------|-----------|</tspan>
<tspan x="10" y="1130">All files |       100 |       100 |       100 |       100 |</tspan>
<tspan x="10" y="1146">----------|-----------|-----------|-----------|-----------|</tspan>
<tspan x="10" y="1162">", source: file:///home/travis/build/npmdoc/node-npmdoc-prompt/tmp/electron.15b0568d9d00.aa0ffcb\</tspan>
<tspan x="10" y="1178">67529d.html (203)</tspan>
<tspan x="10" y="1194">[4843:0325/122013:INFO:CONSOLE(203)] "created coverage file:///tmp/build/coverage.html/index.htm\</tspan>
<tspan x="10" y="1210">l", source: file:///home/travis/build/npmdoc/node-npmdoc-prompt/tmp/electron.15b0568d9d00.aa0ffc\</tspan>
<tspan x="10" y="1226">b67529d.html (203)</tspan>
<tspan x="10" y="1242">[node test-case 4 of 6 passed] - testCase_buildApp_default</tspan>
<tspan x="10" y="1258"></tspan>
<tspan x="10" y="1274">browserTest - created screen-capture file:///home/travis/build/npmdoc/node-npmdoc-prompt/tmp/bui\</tspan>
<tspan x="10" y="1290">ld/screen-capture.npmTest.browser._2Fhome_2Ftravis_2Fbuild_2Fnpmdoc_2Fnode-npmdoc-prompt_2Ftmp_2\</tspan>
<tspan x="10" y="1306">Fbuild_2Fapidoc.html.png</tspan>
<tspan x="10" y="1322"></tspan>
<tspan x="10" y="1338"></tspan>
<tspan x="10" y="1354">browserTest - exit-code 0 - file:///home/travis/build/npmdoc/node-npmdoc-prompt/tmp/build/apidoc\</tspan>
<tspan x="10" y="1370">.html</tspan>
<tspan x="10" y="1386"></tspan>
<tspan x="10" y="1402">[node test-case 5 of 6 passed] - testCase_buildApidoc_default</tspan>
<tspan x="10" y="1418"></tspan>
<tspan x="10" y="1434">browserTest - created screen-capture file:///home/travis/build/npmdoc/node-npmdoc-prompt/tmp/bui\</tspan>
<tspan x="10" y="1450">ld/screen-capture.npmTest.browser..png</tspan>
<tspan x="10" y="1466"></tspan>
<tspan x="10" y="1482"></tspan>
<tspan x="10" y="1498">browserTest - exit-code 0 - http://127.0.0.1:44162?modeTest=1</tspan>
<tspan x="10" y="1514"></tspan>
<tspan x="10" y="1530"></tspan>
<tspan x="10" y="1546">browserTest - merged coverage from /home/travis/build/npmdoc/node-npmdoc-prompt/tmp/coverage.npm\</tspan>
<tspan x="10" y="1562">Test.browser.%2F.json</tspan>
<tspan x="10" y="1578"></tspan>
<tspan x="10" y="1594"></tspan>
<tspan x="10" y="1610">browserTest - merging test-report from /home/travis/build/npmdoc/node-npmdoc-prompt/tmp/test-rep\</tspan>
<tspan x="10" y="1626">ort.npmTest.browser.%2F.json</tspan>
<tspan x="10" y="1642"></tspan>
<tspan x="10" y="1658">[node test-case 6 of 6 passed] - testCase_webpage_default</tspan>
<tspan x="10" y="1674">---------------------------|-----------|-----------|-----------|-----------|</tspan>
<tspan x="10" y="1690">File                       |   % Stmts |% Branches |   % Funcs |   % Lines |</tspan>
<tspan x="10" y="1706">---------------------------|-----------|-----------|-----------|-----------|</tspan>
<tspan x="10" y="1722">   node-npmdoc-prompt/     |       100 |       100 |       100 |       100 |</tspan>
<tspan x="10" y="1738">      example.js           |       100 |       100 |       100 |       100 |</tspan>
<tspan x="10" y="1754">      lib.npmdoc_prompt.js |       100 |       100 |       100 |       100 |</tspan>
<tspan x="10" y="1770">      test.js              |       100 |       100 |       100 |       100 |</tspan>
<tspan x="10" y="1786">---------------------------|-----------|-----------|-----------|-----------|</tspan>
<tspan x="10" y="1802">All files                  |       100 |       100 |       100 |       100 |</tspan>
<tspan x="10" y="1818">---------------------------|-----------|-----------|-----------|-----------|</tspan>
<tspan x="10" y="1834"></tspan>
<tspan x="10" y="1850">created coverage file:///home/travis/build/npmdoc/node-npmdoc-prompt/tmp/build/coverage.html/ind\</tspan>
<tspan x="10" y="1866">ex.html</tspan>
<tspan x="10" y="1882"></tspan>
<tspan x="10" y="1898">/home/travis/build/npmdoc/node-npmdoc-prompt/node_modules/utility2/lib.utility2.sh.html.js</tspan>
<tspan x="10" y="1914"> #1 Line too long.</tspan>
<tspan x="10" y="1930">    process.stdout.write('export npm_package_' + key.replace((/\W/g), '_') + '=' + JSON.stringif\</tspan>
<tspan x="10" y="1946">y(value) + ';'); // Line 1445, Pos 116</tspan>
<tspan x="10" y="1962"></tspan>
<tspan x="10" y="1978">merging file:///home/travis/build/npmdoc/node-npmdoc-prompt/tmp/build/test-report.json to test-r\</tspan>
<tspan x="10" y="1994">eport</tspan>
<tspan x="10" y="2010"></tspan>
<tspan x="10" y="2026">-------------------------------------------------------</tspan>
<tspan x="10" y="2042">| test-report - buildNpmdoc - node - linux v6.10.1 - 2017-03-25T12:19:56.406Z</tspan>
<tspan x="10" y="2058">|   18247 ms            0 failed        6 passed      |</tspan>
<tspan x="10" y="2074">-------------------------------------------------------</tspan>
<tspan x="10" y="2090"></tspan>
<tspan x="10" y="2106">created test-report file:///home/travis/build/npmdoc/node-npmdoc-prompt/tmp/build/test-report.ht\</tspan>
<tspan x="10" y="2122">ml</tspan>
<tspan x="10" y="2138"></tspan>
<tspan x="10" y="2154"></tspan>
<tspan x="10" y="2170">npmTest - 0 failed tests</tspan>
<tspan x="10" y="2186"></tspan>
<tspan x="10" y="2202"></tspan>
<tspan x="10" y="2218">[MODE_BUILD=npmTest] - 2017-03-25T12:20:18Z - EXIT_CODE - 0</tspan>
</text>
</svg>
